<svg width="150" height="201" viewBox="0 0 150 201" fill="none" xmlns="http://www.w3.org/2000/svg">
<path d="M-5.46392e-07 188L37.5 188L37.5 200.5L56.25 200.5L56.25 194.25L93.75 194.25L93.75 200.5L112.5 200.5L112.5 188L150 188L150 159.481C149.992 144.099 143.88 129.349 133.006 118.469L106.056 91.3187L101.756 41.125C101.121 33.1922 98.7004 25.5057 94.6765 18.6398C90.6526 11.7739 85.1291 5.90612 78.5187 1.47497L75 -0.668765L71.4812 1.47497C64.872 5.90678 59.3497 11.7748 55.3269 18.6407C51.3042 25.5066 48.8849 33.1928 48.25 41.125L43.95 91.3187L17.7812 117.494L17 118.469C6.12494 129.351 0.0110925 144.103 -1.79271e-06 159.487L-5.46392e-07 188ZM12.5 175.5L12.5 159.481C12.488 147.405 17.264 135.817 25.7812 127.256L43.75 109.481L43.75 138L56.25 138L56.25 94.25L60.55 42.2937C61.425 31.75 67.1125 22.5937 75 15.7312C82.8875 22.5937 88.575 31.75 89.4562 42.2937L93.75 94.8437L93.75 138L106.25 138L106.25 109.481L124.219 127.256C132.736 135.817 137.512 147.405 137.5 159.481L137.5 175.5L93.75 175.5L93.75 181.75L56.25 181.75L56.25 175.5L12.5 175.5ZM68.75 50.5L81.25 50.5L81.25 38L68.75 38L68.75 50.5ZM106.25 163L125 163L125 150.5L106.25 150.5L106.25 163Z" fill="white"/>
</svg>
