<svg width="200" height="200" viewBox="0 0 200 200" fill="none" xmlns="http://www.w3.org/2000/svg">
<path d="M58.332 183.333H141.665" stroke="white" stroke-width="8" stroke-linecap="round" stroke-linejoin="round"/>
<path d="M16.666 141.667V33.3333C16.666 28.913 18.422 24.6738 21.5476 21.5482C24.6732 18.4226 28.9124 16.6666 33.3327 16.6666H166.666C171.086 16.6666 175.326 18.4226 178.451 21.5482C181.577 24.6738 183.333 28.913 183.333 33.3333V141.667C183.333 146.087 181.577 150.326 178.451 153.452C175.326 156.577 171.086 158.333 166.666 158.333H33.3327C28.9124 158.333 24.6732 156.577 21.5476 153.452C18.422 150.326 16.666 146.087 16.666 141.667Z" stroke="white" stroke-width="8"/>
<path d="M118.456 53.19C118.913 53.379 119.304 53.6994 119.579 54.1106C119.854 54.5218 120.001 55.0053 120.001 55.5V68H132.501C132.996 67.9992 133.48 68.1453 133.892 68.4199C134.304 68.6946 134.625 69.0854 134.815 69.5427C135.004 70.0001 135.054 70.5035 134.957 70.989C134.86 71.4745 134.621 71.9204 134.271 72.27L124.271 82.2701C124.038 82.5021 123.762 82.6859 123.459 82.8112C123.155 82.9365 122.829 83.0006 122.501 83H108.536L104.836 86.7051C105.034 87.4463 105.058 88.2231 104.908 88.9754C104.758 89.7277 104.437 90.4353 103.969 91.0438C103.502 91.6522 102.901 92.145 102.213 92.4842C101.525 92.8234 100.768 92.9999 100.001 93C98.6748 93 97.403 92.4733 96.4653 91.5356C95.5276 90.5979 95.0009 89.3261 95.0009 88L95.0059 87.7701C95.0402 87.0232 95.2415 86.2935 95.5951 85.6347C95.9487 84.9759 96.4456 84.4048 97.0491 83.9635C97.6526 83.5221 98.3474 83.2217 99.0824 83.0844C99.8173 82.9471 100.574 82.9764 101.296 83.17L105.001 79.465V65.5C105 65.1715 105.064 64.8461 105.19 64.5424C105.315 64.2387 105.499 63.9626 105.731 63.73L115.731 53.73C116.081 53.3806 116.526 53.1428 117.011 53.0467C117.497 52.9506 117.999 53.0005 118.456 53.19ZM121.466 78L126.466 73H117.501C116.838 73 116.202 72.7367 115.733 72.2678C115.264 71.799 115.001 71.1631 115.001 70.5V61.535L110.001 66.535V78H121.466ZM129.726 83.8801C130.589 90.1058 129.474 96.4452 126.54 102.003C123.606 107.562 119 112.058 113.372 114.857C107.745 117.657 101.381 118.618 95.1775 117.606C88.9744 116.594 83.2459 113.659 78.8007 109.215C74.3556 104.772 71.4182 99.0443 70.4034 92.8416C69.3886 86.6388 70.3476 80.274 73.1449 74.6457C75.9423 69.0173 80.4367 64.4096 85.9938 61.4732C91.5508 58.5367 97.8898 57.4198 104.116 58.28L102.201 60.195C101.408 60.9877 100.803 61.9479 100.431 63.005L100.001 63C95.0382 63.0008 90.188 64.4785 86.068 67.245C81.9479 70.0115 78.7445 73.9417 76.8656 78.5349C74.9867 83.1282 74.5174 88.1767 75.5174 93.0376C76.5174 97.8985 78.9414 102.352 82.4809 105.83C86.0204 109.309 90.515 111.655 95.3925 112.571C100.27 113.486 105.31 112.93 109.87 110.971C114.43 109.013 118.304 105.742 120.998 101.575C123.693 97.4071 125.086 92.532 125.001 87.57C126.054 87.1976 127.011 86.5946 127.801 85.805L129.721 83.8801H129.726ZM100.001 70.5C96.5397 70.5 93.1562 71.5264 90.2784 73.4493C87.4005 75.3723 85.1575 78.1054 83.833 81.3031C82.5084 84.5008 82.1619 88.0195 82.8371 91.4141C83.5124 94.8088 85.1791 97.927 87.6265 100.374C90.0739 102.822 93.1921 104.489 96.5868 105.164C99.9815 105.839 103.5 105.492 106.698 104.168C109.896 102.843 112.629 100.6 114.552 97.7225C116.475 94.8447 117.501 91.4612 117.501 88H112.501C112.501 90.4723 111.768 92.8891 110.394 94.9447C109.021 97.0003 107.068 98.6024 104.784 99.5485C102.5 100.495 99.987 100.742 97.5622 100.26C95.1375 99.7775 92.9102 98.587 91.162 96.8389C89.4139 95.0907 88.2234 92.8634 87.741 90.4387C87.2587 88.0139 87.5063 85.5006 88.4524 83.2165C89.3985 80.9324 91.0006 78.9802 93.0562 77.6067C95.1118 76.2332 97.5286 75.5 100.001 75.5V70.5Z" fill="white"/>
</svg>
