<svg width="126" height="200" viewBox="0 0 126 200" fill="none" xmlns="http://www.w3.org/2000/svg">
<path d="M89.166 106.333H35.8327C34.0646 106.333 32.3689 105.631 31.1186 104.381C29.8684 103.131 29.166 101.435 29.166 99.6668V63.1635C29.2214 62.0616 29.5453 60.99 30.1094 60.0419C30.6735 59.0938 31.4608 58.2979 32.4027 57.7235L59.0693 41.7235C60.1051 41.1024 61.29 40.7744 62.4977 40.7744C63.7053 40.7744 64.8903 41.1024 65.926 41.7235L92.5927 57.7235C94.596 58.9335 95.826 61.1001 95.8327 63.4401V99.6668C95.8327 101.435 95.1303 103.131 93.8801 104.381C92.6298 105.631 90.9341 106.333 89.166 106.333ZM35.8327 65.8935V99.6668H89.166V65.8935L62.4993 83.6701L35.8327 65.8935ZM62.4993 47.4401L40.2193 60.8068L62.4993 75.6601L84.776 60.8068L62.4993 47.4401Z" fill="white"/>
<rect x="4.5" y="4" width="117" height="192" rx="26" stroke="white" stroke-width="8"/>
<circle cx="62.5" cy="168" r="14" fill="white"/>
</svg>
