<svg width="104" height="95" viewBox="0 0 104 95" fill="none" xmlns="http://www.w3.org/2000/svg">
<path d="M2.88738 0L47.084 32.1816L38.8653 13.216L2.88738 0Z" fill="#E17726"/>
<path d="M101.008 0.0374756L65.1269 13.2178L57.3227 32.4324L101.008 0.0374756ZM20.6721 68.441L1.13852 68.8073L7.96538 91.6296L31.8014 85.1715L20.6721 68.441ZM83.3261 68.441L72.2381 85.1715L96.0348 91.6306L102.819 68.8073L83.3261 68.441Z" fill="#E27625"/>
<path d="M58.383 27.5386L57.5842 52.9117L81.4727 51.8418L74.6781 41.7541L74.5913 41.6568L58.383 27.5386ZM45.8608 27.2548L29.4053 41.6578L29.3196 41.7551L22.525 51.8418L46.4075 52.9117L45.8608 27.2548ZM71.5385 68.5147L58.4949 78.516L73.6463 85.7145L71.5385 68.5147ZM32.4562 68.5137L30.3917 85.7145L45.5008 78.515L32.4562 68.5137Z" fill="#E27625"/>
<path d="M45.169 77.5734L29.837 84.8791L44.0989 91.5496L43.9507 87.141L45.169 77.5734ZM58.8358 77.5763L60.0057 87.0685L59.9099 91.5447L74.2051 84.8791L58.8358 77.5763Z" fill="#D5BFB2"/>
<path d="M63.2619 56.2231L59.2549 64.5095L72.8955 60.5772L63.2619 56.2231ZM40.7369 56.2241L31.0569 60.5772L44.7419 64.5085L40.7369 56.2241Z" fill="#233447"/>
<path d="M70.4967 68.4298L72.7014 86.2629L84.5195 68.8198L70.4967 68.4298ZM33.5011 68.4298L19.4772 68.8198L31.3398 86.2639L33.5011 68.4298ZM22.1802 50.8329L32.3867 61.0685L40.2543 57.5302L44.0223 65.3233L46.4912 51.9217L22.1802 50.8329ZM81.8227 50.8329L57.5076 51.9217L59.9775 65.3233L63.7455 57.5312L71.5728 61.0685L81.8227 50.8329Z" fill="#CC6228"/>
<path d="M82.5127 48.7331L70.9668 60.2629L70.5664 71.6458L82.5127 48.7331ZM21.4784 48.7123L33.4458 71.6657L32.996 60.2629L21.4784 48.7123ZM58.0746 49.4348L57.6096 52.314L56.4609 59.4848L57.1991 81.5082L60.6897 63.816L60.6907 63.6334L58.0746 49.4348ZM45.9347 49.3951L43.3114 63.6334L43.3124 63.816L46.8111 81.5529L46.9503 77.1164L47.4959 59.3538L45.9347 49.3951Z" fill="#E27525"/>
<path d="M31.968 59.8041L32.3583 69.6943L44.5396 79.0336L47.0014 77.3216L44.242 63.3304L31.968 59.8041ZM71.9902 59.8051L59.7586 63.3314L56.9992 77.3216L59.461 79.0336L71.6423 69.6933L71.9902 59.8051Z" fill="#F5841F"/>
<path d="M76.5342 82.696L60.9511 89.9621L61.0167 86.8586L59.7126 85.7331H44.2889L42.9384 86.8556L43.0383 89.9561L27.553 82.7139L35.0879 88.8416L44.1991 95H59.8377L68.9428 88.8158L76.5342 82.696Z" fill="#C0AC9D"/>
<path d="M46.2838 76.6067L44.0802 78.1381L42.7892 88.2754L44.6581 86.7232H59.3335L61.167 88.3072L59.9174 78.1391L57.7137 76.6067H46.2838Z" fill="#161616"/>
<path d="M5.80497 0.891724L0.500005 16.5533L3.81308 32.3895L1.45409 34.1809L4.64615 36.5778L2.24681 38.401L5.42373 41.2485L3.4732 42.6389L8.65008 48.5879L29.882 42.5049L30.0656 42.4077L45.3653 29.7068L5.80497 0.891724ZM98.195 0.891724L58.6337 29.7068L73.9344 42.4077L74.118 42.5049L95.3499 48.5879L100.526 42.6389L98.5773 41.2494L101.753 38.401L99.3579 36.5798L102.598 34.1759L100.15 32.3835L103.5 16.5542L98.195 0.891724Z" fill="#763E1A"/>
<path d="M30.9211 41.1742L8.42444 47.6204L1.11549 69.7868H20.3969L33.6835 69.9515L24.0216 51.4187L30.9211 41.1742ZM73.0794 41.1742L79.9809 51.4187L70.317 69.9515L83.5966 69.7868H102.845L95.5761 47.6204L73.0794 41.1742ZM37.7631 13.1105L44.0565 29.835L45.3918 52.4271L45.9021 59.5085L45.9424 77.5987H58.0581L58.0975 59.5422L58.6098 52.4211L59.9461 29.835L66.2375 13.1105H37.7631Z" fill="#F5841F"/>
</svg>
